<?xml version="1.0" encoding="UTF-8" standalone="no" ?>
<!DOCTYPE svg PUBLIC "-//W3C//DTD SVG 1.1//EN" "http://www.w3.org/Graphics/SVG/1.1/DTD/svg11.dtd">
<svg xmlns="http://www.w3.org/2000/svg" xmlns:xlink="http://www.w3.org/1999/xlink" version="1.1" width="255.39991760253906" height="72.43199999999999" xml:space="preserve">
<desc>Created with Fabric.js 1.6.0-rc.1</desc>
<defs></defs>
<g style="stroke: none; stroke-width: 1; stroke-dasharray: none; stroke-linecap: butt; stroke-linejoin: miter; stroke-miterlimit: 10; fill: none; fill-rule: nonzero; opacity: 1;" transform="translate(9.999999999999996 9.999999999999996) scale(0.09 0.09)" >
  <path d="M 237.451 312.844 c -30.808 0 -55.874 -25.065 -55.874 -55.874 s 25.065 -55.874 55.874 -55.874 s 55.874 25.065 55.874 55.874 C 293.325 287.78 268.259 312.844 237.451 312.844 z" style="stroke: none; stroke-width: 1; stroke-dasharray: none; stroke-linecap: butt; stroke-linejoin: miter; stroke-miterlimit: 10; fill: #AC2C62; fill-rule: nonzero; opacity: 1;" transform=" matrix(1 0 0 1 0 0) " stroke-linecap="round" />
  <path d="M 402.639 161.976 c -0.114 -0.06 -0.229 -0.118 -0.343 -0.178 c 0.004 -0.128 0.013 -0.258 0.018 -0.386 c 1.859 -52.735 -14.525 -91.831 -46.137 -110.08 c -31.61 -18.252 -73.659 -12.893 -118.4 15.084 c -0.109 0.068 -0.217 0.14 -0.325 0.208 c -0.109 -0.068 -0.217 -0.14 -0.325 -0.208 c -44.742 -27.979 -86.793 -33.337 -118.4 -15.084 c -31.61 18.249 -47.996 57.345 -46.137 110.08 c 0.004 0.128 0.013 0.258 0.018 0.386 c -0.114 0.06 -0.23 0.118 -0.343 0.178 C 25.663 186.733 0 220.471 0 256.971 s 25.663 70.238 72.264 94.995 c 0.114 0.06 0.229 0.118 0.343 0.178 c -0.004 0.128 -0.013 0.258 -0.018 0.386 c -1.859 52.735 14.525 91.831 46.137 110.08 c 12.318 7.113 26.223 10.64 41.254 10.64 c 23.539 0 49.842 -8.651 77.146 -25.725 c 0.109 -0.068 0.217 -0.14 0.325 -0.208 c 0.109 0.068 0.217 0.14 0.325 0.208 c 27.307 17.077 53.605 25.725 77.146 25.725 c 15.028 0 28.937 -3.528 41.254 -10.64 c 31.61 -18.249 47.996 -57.345 46.137 -110.08 c -0.004 -0.128 -0.013 -0.258 -0.018 -0.386 c 0.113 -0.06 0.23 -0.118 0.343 -0.178 c 46.6 -24.757 72.264 -58.494 72.264 -94.995 S 449.239 186.733 402.639 161.976 z M 331.565 311.307 c -10.338 17.906 -21.747 34.656 -33.914 49.93 c -19.311 2.9 -39.523 4.405 -60.199 4.405 s -40.887 -1.506 -60.199 -4.405 c -12.168 -15.274 -23.576 -32.024 -33.914 -49.93 s -19.139 -36.162 -26.283 -54.337 c 7.145 -18.174 15.945 -36.431 26.283 -54.337 c 10.338 -17.906 21.748 -34.657 33.914 -49.931 c 19.311 -2.899 39.523 -4.405 60.198 -4.405 s 40.887 1.506 60.198 4.405 c 12.168 15.274 23.578 32.026 33.914 49.931 c 10.338 17.906 19.139 36.162 26.283 54.337 C 350.703 275.145 341.901 293.402 331.565 311.307 z M 368.804 289.213 c 4.797 16.809 8.046 33.316 9.653 49.168 c -14.532 6.534 -30.451 11.973 -47.407 16.224 c 7.115 -10.181 13.902 -20.826 20.285 -31.883 C 357.718 311.666 363.544 300.465 368.804 289.213 z M 237.451 419.791 c -12.925 -9.318 -25.594 -20.385 -37.754 -32.945 c 12.375 1.071 24.988 1.626 37.754 1.626 c 12.767 0 25.38 -0.555 37.754 -1.626 C 263.047 399.406 250.376 410.473 237.451 419.791 z M 143.853 354.605 c -16.956 -4.251 -32.876 -9.69 -47.407 -16.224 c 1.607 -15.852 4.857 -32.358 9.653 -49.168 c 5.259 11.252 11.085 22.453 17.468 33.508 C 129.951 333.777 136.738 344.424 143.853 354.605 z M 106.1 224.729 c -4.797 -16.809 -8.046 -33.316 -9.653 -49.168 c 14.532 -6.534 30.452 -11.973 47.408 -16.224 c -7.116 10.181 -13.902 20.827 -20.285 31.883 C 117.185 202.276 111.359 213.477 106.1 224.729 z M 237.451 94.151 c 12.925 9.317 25.594 20.385 37.753 32.944 c -12.375 -1.071 -24.988 -1.626 -37.753 -1.626 s -25.38 0.555 -37.753 1.626 C 211.857 114.537 224.526 103.469 237.451 94.151 z M 351.334 191.22 c -6.383 -11.056 -13.171 -21.702 -20.285 -31.883 c 16.956 4.251 32.876 9.69 47.408 16.224 c -1.607 15.852 -4.857 32.358 -9.653 49.168 C 363.544 213.477 357.718 202.276 351.334 191.22 z M 314.807 63.525 c 11.09 0 21.179 2.51 29.956 7.578 c 22.203 12.819 34.415 41.085 34.845 80.116 c -21.177 -8.685 -44.721 -15.3 -69.756 -19.649 c -16.283 -19.507 -33.784 -36.589 -51.892 -50.587 C 278.527 69.407 297.84 63.525 314.807 63.525 z M 130.14 71.102 c 8.779 -5.069 18.864 -7.578 29.956 -7.578 c 16.964 0 36.281 5.885 56.848 17.459 c -18.108 13.997 -35.61 31.08 -51.892 50.586 c -25.035 4.348 -48.58 10.963 -69.756 19.649 C 95.725 112.187 107.937 83.921 130.14 71.102 z M 22.829 256.971 c 0 -25.638 18.373 -50.347 51.959 -70.234 c 3.068 22.68 9.11 46.378 17.862 70.234 c -8.752 23.855 -14.795 47.553 -17.862 70.234 C 41.202 307.318 22.829 282.61 22.829 256.971 z M 130.14 442.84 c -22.203 -12.819 -34.415 -41.085 -34.845 -80.116 c 21.176 8.684 44.72 15.3 69.754 19.647 c 16.284 19.507 33.785 36.589 51.893 50.587 C 182.93 452.102 152.343 455.659 130.14 442.84 z M 344.763 442.84 c -22.204 12.82 -52.789 9.261 -86.804 -9.882 c 18.109 -13.998 35.611 -31.08 51.893 -50.587 c 25.035 -4.348 48.579 -10.963 69.754 -19.647 C 379.178 401.755 366.965 430.021 344.763 442.84 z M 400.115 327.205 c -3.068 -22.682 -9.11 -46.378 -17.862 -70.234 c 8.752 -23.855 14.795 -47.554 17.862 -70.234 c 33.587 19.887 51.959 44.596 51.959 70.234 S 433.701 307.318 400.115 327.205 z" style="stroke: none; stroke-width: 1; stroke-dasharray: none; stroke-linecap: butt; stroke-linejoin: miter; stroke-miterlimit: 10; fill: #444242; fill-rule: nonzero; opacity: 1;" transform=" matrix(1 0 0 1 0 0) " stroke-linecap="round" />
  <path d="M 293.325 256.971 c 0 -30.808 -25.066 -55.874 -55.874 -55.874 l 0 0 v 111.746 l 0 0 C 268.259 312.844 293.325 287.779 293.325 256.971 z" style="stroke: none; stroke-width: 1; stroke-dasharray: none; stroke-linecap: butt; stroke-linejoin: miter; stroke-miterlimit: 10; fill: #922555; fill-rule: nonzero; opacity: 1;" transform=" matrix(1 0 0 1 0 0) " stroke-linecap="round" />
  <path d="M 402.639 161.976 c -0.114 -0.06 -0.229 -0.118 -0.343 -0.178 c 0.004 -0.128 0.013 -0.258 0.018 -0.386 c 1.859 -52.735 -14.525 -91.831 -46.137 -110.08 c -31.61 -18.252 -73.659 -12.893 -118.4 15.084 c -0.109 0.068 -0.217 0.14 -0.325 0.208 l 0 0 v 27.527 l 0 0 c 12.925 9.317 25.594 20.385 37.753 32.944 c -12.375 -1.071 -24.988 -1.626 -37.753 -1.626 l 0 0 v 22.829 l 0 0 c 20.675 0 40.887 1.506 60.198 4.405 c 12.168 15.274 23.578 32.026 33.914 49.931 c 10.338 17.906 19.139 36.162 26.283 54.337 c -7.145 18.174 -15.945 36.431 -26.283 54.337 c -10.338 17.906 -21.747 34.656 -33.914 49.93 c -19.311 2.899 -39.523 4.405 -60.199 4.405 l 0 0 v 22.829 l 0 0 c 12.767 0 25.38 -0.555 37.754 -1.626 c -12.159 12.56 -24.83 23.627 -37.754 32.945 l 0 0 v 27.526 l 0 0 c 0.109 0.068 0.217 0.14 0.325 0.208 c 27.307 17.077 53.605 25.725 77.146 25.725 c 15.028 0 28.937 -3.528 41.254 -10.64 c 31.61 -18.249 47.996 -57.345 46.137 -110.08 c -0.004 -0.128 -0.013 -0.258 -0.018 -0.386 c 0.114 -0.06 0.23 -0.118 0.343 -0.178 c 46.6 -24.757 72.264 -58.494 72.264 -94.995 S 449.239 186.733 402.639 161.976 z M 351.334 191.22 c -6.383 -11.056 -13.171 -21.702 -20.285 -31.883 c 16.956 4.251 32.876 9.69 47.408 16.224 c -1.607 15.852 -4.857 32.358 -9.653 49.168 C 363.544 213.477 357.718 202.276 351.334 191.22 z M 351.334 322.721 c 6.383 -11.056 12.209 -22.256 17.468 -33.508 c 4.797 16.809 8.046 33.316 9.653 49.168 c -14.532 6.534 -30.451 11.973 -47.407 16.224 C 338.165 344.424 344.952 333.777 351.334 322.721 z M 344.763 442.84 c -22.204 12.82 -52.789 9.261 -86.804 -9.882 c 18.109 -13.998 35.611 -31.08 51.893 -50.587 c 25.035 -4.348 48.579 -10.963 69.754 -19.647 C 379.178 401.755 366.965 430.021 344.763 442.84 z M 309.851 131.57 c -16.283 -19.507 -33.784 -36.589 -51.892 -50.587 c 20.568 -11.576 39.883 -17.458 56.848 -17.458 c 11.09 0 21.179 2.51 29.956 7.578 c 22.203 12.819 34.415 41.085 34.845 80.116 C 358.431 142.533 334.886 135.917 309.851 131.57 z M 400.115 327.205 c -3.068 -22.682 -9.11 -46.378 -17.862 -70.234 c 8.752 -23.855 14.795 -47.554 17.862 -70.234 c 33.587 19.887 51.959 44.596 51.959 70.234 S 433.701 307.318 400.115 327.205 z" style="stroke: none; stroke-width: 1; stroke-dasharray: none; stroke-linecap: butt; stroke-linejoin: miter; stroke-miterlimit: 10; fill: #3A3839; fill-rule: nonzero; opacity: 1;" transform=" matrix(1 0 0 1 0 0) " stroke-linecap="round" />
  <circle cx="463.49" cy="256.96" r="48.51" style="stroke: none; stroke-width: 1; stroke-dasharray: none; stroke-linecap: butt; stroke-linejoin: miter; stroke-miterlimit: 10; fill: #528ACF; fill-rule: nonzero; opacity: 1;" transform="  matrix(1 0 0 1 0 0) "/>
  <circle cx="125.56" cy="450.78999999999996" r="48.51" style="stroke: none; stroke-width: 1; stroke-dasharray: none; stroke-linecap: butt; stroke-linejoin: miter; stroke-miterlimit: 10; fill: #9ED04D; fill-rule: nonzero; opacity: 1;" transform="  matrix(1 0 0 1 0 0) "/>
  <circle cx="124.44" cy="61.22" r="48.51" style="stroke: none; stroke-width: 1; stroke-dasharray: none; stroke-linecap: butt; stroke-linejoin: miter; stroke-miterlimit: 10; fill: #F9D026; fill-rule: nonzero; opacity: 1;" transform="  matrix(1 0 0 1 0 0) "/>
</g>
  <g transform="translate(151.7 36.72)">
   <text font-family="Amerika Sans" font-size="40" font-weight="bold" style="stroke: none; stroke-width: 1; stroke-dasharray: none; stroke-linecap: butt; stroke-linejoin: miter; stroke-miterlimit: 10; fill: #000000; fill-rule: nonzero; opacity: 1;" ><tspan x="-94.2" y="8.98" style="stroke: none; stroke-width: 0; stroke-dasharray: none; stroke-linecap: butt; stroke-linejoin: miter; stroke-miterlimit: 4; fill: #000000; fill-rule: ; opacity: 1;">e</tspan><tspan x="-71.48" y="8.98" style="stroke: none; stroke-width: 0; stroke-dasharray: none; stroke-linecap: butt; stroke-linejoin: miter; stroke-miterlimit: 4; fill: #000000; fill-rule: ; opacity: 1;">l</tspan><tspan x="-58.2" y="8.98" style="stroke: none; stroke-width: 0; stroke-dasharray: none; stroke-linecap: butt; stroke-linejoin: miter; stroke-miterlimit: 4; fill: #000000; fill-rule: ; opacity: 1;">e</tspan><tspan x="-35.48" y="8.98" style="stroke: none; stroke-width: 0; stroke-dasharray: none; stroke-linecap: butt; stroke-linejoin: miter; stroke-miterlimit: 4; fill: #000000; fill-rule: ; opacity: 1;">c</tspan><tspan x="-13.88" y="8.98" style="stroke: none; stroke-width: 0; stroke-dasharray: none; stroke-linecap: butt; stroke-linejoin: miter; stroke-miterlimit: 4; fill: #000000; fill-rule: ; opacity: 1;">t</tspan><tspan x="0.4" y="8.98" style="stroke: none; stroke-width: 0; stroke-dasharray: none; stroke-linecap: butt; stroke-linejoin: miter; stroke-miterlimit: 4; fill: #000000; fill-rule: ; opacity: 1;">r</tspan><tspan x="16.16" y="8.98" style="stroke: none; stroke-width: 0; stroke-dasharray: none; stroke-linecap: butt; stroke-linejoin: miter; stroke-miterlimit: 4; fill: #000000; fill-rule: ; opacity: 1;">o</tspan><tspan x="39.96" y="8.98" style="stroke: none; stroke-width: 0; stroke-dasharray: none; stroke-linecap: butt; stroke-linejoin: miter; stroke-miterlimit: 4; fill: #000000; fill-rule: ; opacity: 1;">n</tspan><tspan x="63.24" y="8.98" style="stroke: none; stroke-width: 0; stroke-dasharray: none; stroke-linecap: butt; stroke-linejoin: miter; stroke-miterlimit: 4; fill: #000000; fill-rule: ; opacity: 1;">i</tspan><tspan x="72.6" y="8.98" style="stroke: none; stroke-width: 0; stroke-dasharray: none; stroke-linecap: butt; stroke-linejoin: miter; stroke-miterlimit: 4; fill: #000000; fill-rule: ; opacity: 1;">c</tspan></text>
 </g>
</svg>